<svg width="1640" height="1123" viewBox="0 0 1640 1123" fill="none" xmlns="http://www.w3.org/2000/svg">
<g id="Group 1">
<g id="Vector 1" filter="url(#filter0_f)">
<path d="M373.411 343.207C290.902 339.026 247.477 398.329 202.811 497.167C158.144 596.005 659.088 946.121 764.861 921.792C870.633 897.463 1069.77 592.204 1041.23 530.24C1012.7 468.276 1052.4 534.422 980.437 389.205C908.475 243.989 870.943 569.395 709.338 596.006C547.733 622.616 455.919 347.389 373.411 343.207Z" fill="url(#paint0_linear)" fill-opacity="0.1"/>
</g>
<g id="Vector 2" filter="url(#filter1_f)">
<path d="M1242 764.038C1319.74 797.989 1372.21 771.787 1433.3 717.722C1494.38 663.656 1083.42 224.84 978.18 202.59C872.941 180.341 626.05 324.365 641.564 379.472C657.078 434.579 631.722 372.286 672.92 503.34C714.118 634.394 810.992 415.303 969.797 456.865C1128.6 498.426 1164.26 730.087 1242 764.038Z" fill="url(#paint1_linear)" fill-opacity="0.1"/>
</g>
</g>
<defs>
<filter id="filter0_f" x="0" y="143" width="1244" height="980" filterUnits="userSpaceOnUse" color-interpolation-filters="sRGB">
<feFlood flood-opacity="0" result="BackgroundImageFix"/>
<feBlend mode="normal" in="SourceGraphic" in2="BackgroundImageFix" result="shape"/>
<feGaussianBlur stdDeviation="100" result="effect1_foregroundBlur"/>
</filter>
<filter id="filter1_f" x="440.865" y="0.274597" width="1198.59" height="978.959" filterUnits="userSpaceOnUse" color-interpolation-filters="sRGB">
<feFlood flood-opacity="0" result="BackgroundImageFix"/>
<feBlend mode="normal" in="SourceGraphic" in2="BackgroundImageFix" result="shape"/>
<feGaussianBlur stdDeviation="100" result="effect1_foregroundBlur"/>
</filter>
<linearGradient id="paint0_linear" x1="622" y1="343" x2="622" y2="923" gradientUnits="userSpaceOnUse">
<stop stop-color="#1C1C1C"/>
<stop offset="1" stop-color="#DF4848"/>
</linearGradient>
<linearGradient id="paint1_linear" x1="1005.37" y1="670.924" x2="1161.83" y2="274.029" gradientUnits="userSpaceOnUse">
<stop stop-color="#DA3B3B"/>
<stop offset="1" stop-color="#DA3B3B" stop-opacity="0"/>
</linearGradient>
</defs>
</svg>
