<svg width="337" height="222" viewBox="0 0 337 222" fill="none" xmlns="http://www.w3.org/2000/svg">
<g clip-path="url(#clip0)">
<path opacity="0.1" d="M337 142.489C337.004 148.52 336.325 154.522 334.982 160.326C333.684 165.921 331.775 171.277 329.306 176.25C329.306 194.267 319.343 209.838 304.882 217.246C298.839 220.311 292.357 221.876 285.814 221.85H63.9742C52.1173 221.85 41.1295 217.944 32.1182 211.291C29.5393 209.396 27.0929 207.244 24.8038 204.858C14.7881 194.349 8.57832 179.828 8.57832 163.789C2.95718 153.222 -0.0234119 140.887 0.000138486 128.287C0.000138486 101.906 12.782 79.221 31.0931 69.2056C33.5246 67.8763 36.0371 66.7797 38.6078 65.9258C39.5171 65.6238 40.4362 65.3529 41.3651 65.1131C43.8414 64.4693 46.3531 64.0487 48.8799 63.8544C49.7931 63.7849 50.7112 63.7453 51.6342 63.7358H52.1409C53.1601 63.7358 54.1705 63.7789 55.175 63.8508L55.505 63.1676C55.9095 62.3428 56.3239 61.5265 56.7481 60.7186C57.514 59.2465 58.3172 57.796 59.1578 56.3672C60.0376 54.8592 60.9557 53.3751 61.9121 51.9151L62.1566 51.5555C62.6986 50.7307 63.2524 49.9156 63.818 49.11C65.5855 46.5951 67.4512 44.1557 69.4151 41.7918C90.6573 16.3739 123.936 0.0112305 161.348 0.0112305C190.458 0.0112305 217.068 9.91874 237.45 26.2886C245.171 20.9542 253.894 18.1552 262.766 18.1648C291.558 18.1648 314.907 47.0674 314.907 82.7201C314.902 84.9759 314.804 87.2301 314.612 89.4737C321.552 95.4715 327.209 103.419 331.106 112.646C335.002 121.873 337.024 132.108 337 142.489V142.489Z" fill="#E45555"/>
<path opacity="0.2" d="M69.4212 41.7805V49.0988H63.8242C65.578 46.5862 67.4436 44.1468 69.4212 41.7805Z" fill="#E45555"/>
<path opacity="0.2" d="M79.6924 39.925H72.1777V49.0988H79.6924V39.925Z" fill="#E45555"/>
<path opacity="0.2" d="M89.9625 39.925H82.4478V49.0988H89.9625V39.925Z" fill="#E45555"/>
<path opacity="0.2" d="M100.234 39.925H92.719V49.0988H100.234V39.925Z" fill="#E45555"/>
<path opacity="0.2" d="M110.503 39.925H102.988V49.0988H110.503V39.925Z" fill="#E45555"/>
<path opacity="0.2" d="M120.775 39.925H113.26V49.0988H120.775V39.925Z" fill="#E45555"/>
<path d="M131.046 39.925H123.532V49.0988H131.046V39.925Z" fill="#E45555"/>
<path opacity="0.2" d="M141.316 39.925H133.801V49.0988H141.316V39.925Z" fill="#E45555"/>
<path opacity="0.2" d="M151.588 39.925H144.073V49.0988H151.588V39.925Z" fill="#E45555"/>
<path opacity="0.2" d="M161.857 39.925H154.342V49.0988H161.857V39.925Z" fill="#E45555"/>
<path d="M172.129 39.925H164.614V49.0988H172.129V39.925Z" fill="#E45555"/>
<path opacity="0.2" d="M182.4 39.925H174.886V49.0988H182.4V39.925Z" fill="#E45555"/>
<path opacity="0.2" d="M192.67 39.925H185.155V49.0988H192.67V39.925Z" fill="#E45555"/>
<path opacity="0.2" d="M202.942 39.925H195.427V49.0988H202.942V39.925Z" fill="#E45555"/>
<path opacity="0.2" d="M213.214 39.925H205.699V49.0988H213.214V39.925Z" fill="#E45555"/>
<path opacity="0.2" d="M223.483 39.925H215.968V49.0988H223.483V39.925Z" fill="#E45555"/>
<path opacity="0.2" d="M233.756 39.925H226.241V49.0988H233.756V39.925Z" fill="#E45555"/>
<path d="M244.024 39.925H236.509V49.0988H244.024V39.925Z" fill="#E45555"/>
<path d="M254.296 39.925H246.781V49.0988H254.296V39.925Z" fill="#E45555"/>
<path opacity="0.2" d="M264.569 39.925H257.054V49.0988H264.569V39.925Z" fill="#E45555"/>
<path opacity="0.2" d="M274.839 39.925H267.324V49.0988H274.839V39.925Z" fill="#E45555"/>
<path d="M285.11 39.925H277.595V49.0988H285.11V39.925Z" fill="#E45555"/>
<path d="M295.378 39.925H287.863V49.0988H295.378V39.925Z" fill="#E45555"/>
<path d="M59.1512 56.3667V60.7181H56.7415C57.5074 59.2365 58.3106 57.786 59.1512 56.3667Z" fill="#E45555"/>
<path opacity="0.2" d="M69.4215 51.5441H61.9067V60.718H69.4215V51.5441Z" fill="#E45555"/>
<path d="M79.6924 51.5441H72.1777V60.718H79.6924V51.5441Z" fill="#E45555"/>
<path opacity="0.2" d="M89.9625 51.5441H82.4478V60.718H89.9625V51.5441Z" fill="#E45555"/>
<path opacity="0.7" d="M100.234 51.5441H92.719V60.718H100.234V51.5441Z" fill="#E45555"/>
<path opacity="0.2" d="M110.503 51.5441H102.988V60.718H110.503V51.5441Z" fill="#E45555"/>
<path opacity="0.4" d="M120.775 51.5441H113.26V60.718H120.775V51.5441Z" fill="#E45555"/>
<path d="M131.046 51.5441H123.532V60.718H131.046V51.5441Z" fill="#E45555"/>
<path opacity="0.4" d="M141.316 51.5441H133.801V60.718H141.316V51.5441Z" fill="#E45555"/>
<path opacity="0.2" d="M151.588 51.5441H144.073V60.718H151.588V51.5441Z" fill="#E45555"/>
<path opacity="0.4" d="M161.857 51.5441H154.342V60.718H161.857V51.5441Z" fill="#E45555"/>
<path d="M172.129 51.5441H164.614V60.718H172.129V51.5441Z" fill="#E45555"/>
<path opacity="0.4" d="M182.4 51.5441H174.886V60.718H182.4V51.5441Z" fill="#E45555"/>
<path opacity="0.4" d="M192.67 51.5441H185.155V60.718H192.67V51.5441Z" fill="#E45555"/>
<path opacity="0.2" d="M202.942 51.5441H195.427V60.718H202.942V51.5441Z" fill="#E45555"/>
<path opacity="0.4" d="M213.214 51.5441H205.699V60.718H213.214V51.5441Z" fill="#E45555"/>
<path opacity="0.4" d="M223.483 51.5441H215.968V60.718H223.483V51.5441Z" fill="#E45555"/>
<path opacity="0.2" d="M233.756 51.5441H226.241V60.718H233.756V51.5441Z" fill="#E45555"/>
<path opacity="0.2" d="M244.024 51.5441H236.509V60.718H244.024V51.5441Z" fill="#E45555"/>
<path opacity="0.4" d="M254.296 51.5441H246.781V60.718H254.296V51.5441Z" fill="#E45555"/>
<path opacity="0.2" d="M264.569 51.5441H257.054V60.718H264.569V51.5441Z" fill="#E45555"/>
<path d="M274.839 51.5441H267.324V60.718H274.839V51.5441Z" fill="#E45555"/>
<path d="M285.11 51.5441H277.595V60.718H285.11V51.5441Z" fill="#E45555"/>
<path d="M295.378 51.5441H287.863V60.718H295.378V51.5441Z" fill="#E45555"/>
<path opacity="0.2" d="M38.6078 65.9289V72.3409H31.093V69.2086C33.5245 67.8793 36.037 66.7828 38.6078 65.9289V65.9289Z" fill="#E45555"/>
<path opacity="0.2" d="M48.8803 63.8576V72.341H41.3655V65.1162L48.8803 63.8576Z" fill="#E45555"/>
<path d="M59.1488 63.1671H51.634V72.3409H59.1488V63.1671Z" fill="#E45555"/>
<path opacity="0.7" d="M69.4215 63.1671H61.9067V72.3409H69.4215V63.1671Z" fill="#E45555"/>
<path d="M79.6924 63.1671H72.1777V72.3409H79.6924V63.1671Z" fill="#E45555"/>
<path opacity="0.7" d="M89.9625 63.1671H82.4478V72.3409H89.9625V63.1671Z" fill="#E45555"/>
<path opacity="0.7" d="M100.234 63.1671H92.719V72.3409H100.234V63.1671Z" fill="#E45555"/>
<path opacity="0.2" d="M110.503 63.1671H102.988V72.3409H110.503V63.1671Z" fill="#E45555"/>
<path opacity="0.4" d="M120.775 63.1671H113.26V72.3409H120.775V63.1671Z" fill="#E45555"/>
<path opacity="0.4" d="M131.046 63.1671H123.532V72.3409H131.046V63.1671Z" fill="#E45555"/>
<path d="M141.316 63.1671H133.801V72.3409H141.316V63.1671Z" fill="#E45555"/>
<path opacity="0.2" d="M151.588 63.1671H144.073V72.3409H151.588V63.1671Z" fill="#E45555"/>
<path opacity="0.4" d="M161.857 63.1671H154.342V72.3409H161.857V63.1671Z" fill="#E45555"/>
<path d="M172.129 63.1671H164.614V72.3409H172.129V63.1671Z" fill="#E45555"/>
<path opacity="0.2" d="M182.4 63.1671H174.886V72.3409H182.4V63.1671Z" fill="#E45555"/>
<path opacity="0.4" d="M192.67 63.1671H185.155V72.3409H192.67V63.1671Z" fill="#E45555"/>
<path opacity="0.2" d="M202.942 63.1671H195.427V72.3409H202.942V63.1671Z" fill="#E45555"/>
<path d="M213.214 63.1671H205.699V72.3409H213.214V63.1671Z" fill="#E45555"/>
<path opacity="0.2" d="M223.483 63.1671H215.968V72.3409H223.483V63.1671Z" fill="#E45555"/>
<path opacity="0.7" d="M233.756 63.1671H226.241V72.3409H233.756V63.1671Z" fill="#E45555"/>
<path opacity="0.7" d="M244.024 63.1671H236.509V72.3409H244.024V63.1671Z" fill="#E45555"/>
<path opacity="0.4" d="M254.296 63.1671H246.781V72.3409H254.296V63.1671Z" fill="#E45555"/>
<path opacity="0.2" d="M264.569 63.1671H257.054V72.3409H264.569V63.1671Z" fill="#E45555"/>
<path d="M274.839 63.1671H267.324V72.3409H274.839V63.1671Z" fill="#E45555"/>
<path d="M285.11 63.1671H277.595V72.3409H285.11V63.1671Z" fill="#E45555"/>
<path d="M295.378 63.1671H287.863V72.3409H295.378V63.1671Z" fill="#E45555"/>
<path opacity="0.2" d="M38.6078 74.7863H31.093V83.9602H38.6078V74.7863Z" fill="#E45555"/>
<path opacity="0.2" d="M48.8803 74.7863H41.3655V83.9602H48.8803V74.7863Z" fill="#E45555"/>
<path opacity="0.2" d="M59.1488 74.7863H51.634V83.9602H59.1488V74.7863Z" fill="#E45555"/>
<path opacity="0.2" d="M69.4215 74.7863H61.9067V83.9602H69.4215V74.7863Z" fill="#E45555"/>
<path d="M79.6924 74.7863H72.1777V83.9602H79.6924V74.7863Z" fill="#E45555"/>
<path opacity="0.7" d="M89.9625 74.7863H82.4478V83.9602H89.9625V74.7863Z" fill="#E45555"/>
<path opacity="0.7" d="M100.234 74.7863H92.719V83.9602H100.234V74.7863Z" fill="#E45555"/>
<path opacity="0.2" d="M110.503 74.7863H102.988V83.9602H110.503V74.7863Z" fill="#E45555"/>
<path opacity="0.2" d="M120.775 74.7863H113.26V83.9602H120.775V74.7863Z" fill="#E45555"/>
<path opacity="0.4" d="M131.046 74.7863H123.532V83.9602H131.046V74.7863Z" fill="#E45555"/>
<path opacity="0.4" d="M141.316 74.7863H133.801V83.9602H141.316V74.7863Z" fill="#E45555"/>
<path d="M151.588 74.7863H144.073V83.9602H151.588V74.7863Z" fill="#E45555"/>
<path opacity="0.2" d="M161.857 74.7863H154.342V83.9602H161.857V74.7863Z" fill="#E45555"/>
<path opacity="0.4" d="M172.129 74.7863H164.614V83.9602H172.129V74.7863Z" fill="#E45555"/>
<path opacity="0.4" d="M182.4 74.7863H174.886V83.9602H182.4V74.7863Z" fill="#E45555"/>
<path opacity="0.4" d="M192.67 74.7863H185.155V83.9602H192.67V74.7863Z" fill="#E45555"/>
<path opacity="0.4" d="M202.942 74.7863H195.427V83.9602H202.942V74.7863Z" fill="#E45555"/>
<path opacity="0.2" d="M213.214 74.7863H205.699V83.9602H213.214V74.7863Z" fill="#E45555"/>
<path opacity="0.2" d="M223.483 74.7863H215.968V83.9602H223.483V74.7863Z" fill="#E45555"/>
<path opacity="0.2" d="M233.756 74.7863H226.241V83.9602H233.756V74.7863Z" fill="#E45555"/>
<path opacity="0.2" d="M244.024 74.7863H236.509V83.9602H244.024V74.7863Z" fill="#E45555"/>
<path opacity="0.7" d="M254.296 74.7863H246.781V83.9602H254.296V74.7863Z" fill="#E45555"/>
<path opacity="0.7" d="M264.569 74.7863H257.054V83.9602H264.569V74.7863Z" fill="#E45555"/>
<path opacity="0.4" d="M274.839 74.7863H267.324V83.9602H274.839V74.7863Z" fill="#E45555"/>
<path opacity="0.2" d="M285.11 74.7863H277.595V83.9602H285.11V74.7863Z" fill="#E45555"/>
<path d="M295.378 74.7863H287.863V83.9602H295.378V74.7863Z" fill="#E45555"/>
<path opacity="0.2" d="M38.6078 86.4091H31.093V95.5831H38.6078V86.4091Z" fill="#E45555"/>
<path opacity="0.2" d="M48.8803 86.4091H41.3655V95.5831H48.8803V86.4091Z" fill="#E45555"/>
<path opacity="0.4" d="M59.1488 86.4091H51.634V95.5831H59.1488V86.4091Z" fill="#E45555"/>
<path opacity="0.2" d="M69.4215 86.4091H61.9067V95.5831H69.4215V86.4091Z" fill="#E45555"/>
<path opacity="0.2" d="M79.6924 86.4091H72.1777V95.5831H79.6924V86.4091Z" fill="#E45555"/>
<path opacity="0.7" d="M89.9625 86.4091H82.4478V95.5831H89.9625V86.4091Z" fill="#E45555"/>
<path opacity="0.7" d="M100.234 86.4091H92.719V95.5831H100.234V86.4091Z" fill="#E45555"/>
<path opacity="0.2" d="M110.503 86.4091H102.988V95.5831H110.503V86.4091Z" fill="#E45555"/>
<path opacity="0.2" d="M120.775 86.4091H113.26V95.5831H120.775V86.4091Z" fill="#E45555"/>
<path opacity="0.4" d="M131.046 86.4091H123.532V95.5831H131.046V86.4091Z" fill="#E45555"/>
<path d="M141.316 86.4091H133.801V95.5831H141.316V86.4091Z" fill="#E45555"/>
<path opacity="0.2" d="M151.588 86.4091H144.073V95.5831H151.588V86.4091Z" fill="#E45555"/>
<path d="M161.857 86.4091H154.342V95.5831H161.857V86.4091Z" fill="#E45555"/>
<path d="M172.129 86.4091H164.614V95.5831H172.129V86.4091Z" fill="#E45555"/>
<path d="M182.4 86.4091H174.886V95.5831H182.4V86.4091Z" fill="#E45555"/>
<path opacity="0.2" d="M192.67 86.4091H185.155V95.5831H192.67V86.4091Z" fill="#E45555"/>
<path d="M202.942 86.4091H195.427V95.5831H202.942V86.4091Z" fill="#E45555"/>
<path opacity="0.2" d="M213.214 86.4091H205.699V95.5831H213.214V86.4091Z" fill="#E45555"/>
<path opacity="0.2" d="M223.483 86.4091H215.968V95.5831H223.483V86.4091Z" fill="#E45555"/>
<path opacity="0.2" d="M233.756 86.4091H226.241V95.5831H233.756V86.4091Z" fill="#E45555"/>
<path opacity="0.2" d="M244.024 86.4091H236.509V95.5831H244.024V86.4091Z" fill="#E45555"/>
<path opacity="0.2" d="M254.296 86.4091H246.781V95.5831H254.296V86.4091Z" fill="#E45555"/>
<path opacity="0.7" d="M264.569 86.4091H257.054V95.5831H264.569V86.4091Z" fill="#E45555"/>
<path opacity="0.2" d="M274.839 86.4091H267.324V95.5831H274.839V86.4091Z" fill="#E45555"/>
<path opacity="0.2" d="M285.11 86.4091H277.595V95.5831H285.11V86.4091Z" fill="#E45555"/>
<path d="M295.378 86.4091H287.863V95.5831H295.378V86.4091Z" fill="#E45555"/>
<path opacity="0.2" d="M38.6078 98.0286H31.093V107.202H38.6078V98.0286Z" fill="#E45555"/>
<path opacity="0.2" d="M48.8803 98.0286H41.3655V107.202H48.8803V98.0286Z" fill="#E45555"/>
<path opacity="0.2" d="M59.1488 98.0286H51.634V107.202H59.1488V98.0286Z" fill="#E45555"/>
<path opacity="0.4" d="M69.4215 98.0286H61.9067V107.202H69.4215V98.0286Z" fill="#E45555"/>
<path opacity="0.2" d="M79.6924 98.0286H72.1777V107.202H79.6924V98.0286Z" fill="#E45555"/>
<path opacity="0.2" d="M89.9625 98.0286H82.4478V107.202H89.9625V98.0286Z" fill="#E45555"/>
<path opacity="0.7" d="M100.234 98.0286H92.719V107.202H100.234V98.0286Z" fill="#E45555"/>
<path opacity="0.2" d="M110.503 98.0286H102.988V107.202H110.503V98.0286Z" fill="#E45555"/>
<path opacity="0.2" d="M120.775 98.0286H113.26V107.202H120.775V98.0286Z" fill="#E45555"/>
<path opacity="0.2" d="M131.046 98.0286H123.532V107.202H131.046V98.0286Z" fill="#E45555"/>
<path d="M141.316 98.0286H133.801V107.202H141.316V98.0286Z" fill="#E45555"/>
<path opacity="0.2" d="M151.588 98.0286H144.073V107.202H151.588V98.0286Z" fill="#E45555"/>
<path d="M161.857 98.0286H154.342V107.202H161.857V98.0286Z" fill="#E45555"/>
<path d="M172.129 98.0286H164.614V107.202H172.129V98.0286Z" fill="#E45555"/>
<path opacity="0.2" d="M182.4 98.0286H174.886V107.202H182.4V98.0286Z" fill="#E45555"/>
<path opacity="0.2" d="M192.67 98.0286H185.155V107.202H192.67V98.0286Z" fill="#E45555"/>
<path opacity="0.2" d="M202.942 98.0286H195.427V107.202H202.942V98.0286Z" fill="#E45555"/>
<path opacity="0.2" d="M213.214 98.0286H205.699V107.202H213.214V98.0286Z" fill="#E45555"/>
<path opacity="0.2" d="M223.483 98.0286H215.968V107.202H223.483V98.0286Z" fill="#E45555"/>
<path opacity="0.2" d="M233.756 98.0286H226.241V107.202H233.756V98.0286Z" fill="#E45555"/>
<path opacity="0.2" d="M244.024 98.0286H236.509V107.202H244.024V98.0286Z" fill="#E45555"/>
<path opacity="0.2" d="M254.296 98.0286H246.781V107.202H254.296V98.0286Z" fill="#E45555"/>
<path opacity="0.2" d="M264.569 98.0286H257.054V107.202H264.569V98.0286Z" fill="#E45555"/>
<path opacity="0.2" d="M274.839 98.0286H267.324V107.202H274.839V98.0286Z" fill="#E45555"/>
<path opacity="0.4" d="M285.11 98.0286H277.595V107.202H285.11V98.0286Z" fill="#E45555"/>
<path d="M295.378 98.0286H287.863V107.202H295.378V98.0286Z" fill="#E45555"/>
<path opacity="0.7" d="M38.6078 109.651H31.093V118.825H38.6078V109.651Z" fill="#E45555"/>
<path opacity="0.7" d="M48.8803 109.651H41.3655V118.825H48.8803V109.651Z" fill="#E45555"/>
<path opacity="0.7" d="M59.1488 109.651H51.634V118.825H59.1488V109.651Z" fill="#E45555"/>
<path opacity="0.7" d="M69.4215 109.651H61.9067V118.825H69.4215V109.651Z" fill="#E45555"/>
<path opacity="0.7" d="M79.6924 109.651H72.1777V118.825H79.6924V109.651Z" fill="#E45555"/>
<path opacity="0.2" d="M89.9625 109.651H82.4478V118.825H89.9625V109.651Z" fill="#E45555"/>
<path opacity="0.2" d="M100.234 109.651H92.719V118.825H100.234V109.651Z" fill="#E45555"/>
<path opacity="0.2" d="M110.503 109.651H102.988V118.825H110.503V109.651Z" fill="#E45555"/>
<path opacity="0.2" d="M120.775 109.651H113.26V118.825H120.775V109.651Z" fill="#E45555"/>
<path opacity="0.2" d="M131.046 109.651H123.532V118.825H131.046V109.651Z" fill="#E45555"/>
<path opacity="0.2" d="M141.316 109.651H133.801V118.825H141.316V109.651Z" fill="#E45555"/>
<path d="M151.588 109.651H144.073V118.825H151.588V109.651Z" fill="#E45555"/>
<path opacity="0.2" d="M161.857 109.651H154.342V118.825H161.857V109.651Z" fill="#E45555"/>
<path opacity="0.2" d="M172.129 109.651H164.614V118.825H172.129V109.651Z" fill="#E45555"/>
<path opacity="0.2" d="M182.4 109.651H174.886V118.825H182.4V109.651Z" fill="#E45555"/>
<path d="M192.67 109.651H185.155V118.825H192.67V109.651Z" fill="#E45555"/>
<path opacity="0.2" d="M202.942 109.651H195.427V118.825H202.942V109.651Z" fill="#E45555"/>
<path opacity="0.2" d="M213.214 109.651H205.699V118.825H213.214V109.651Z" fill="#E45555"/>
<path opacity="0.2" d="M223.483 109.651H215.968V118.825H223.483V109.651Z" fill="#E45555"/>
<path opacity="0.2" d="M233.756 109.651H226.241V118.825H233.756V109.651Z" fill="#E45555"/>
<path opacity="0.2" d="M244.024 109.651H236.509V118.825H244.024V109.651Z" fill="#E45555"/>
<path opacity="0.2" d="M254.296 109.651H246.781V118.825H254.296V109.651Z" fill="#E45555"/>
<path opacity="0.2" d="M264.569 109.651H257.054V118.825H264.569V109.651Z" fill="#E45555"/>
<path opacity="0.2" d="M274.839 109.651H267.324V118.825H274.839V109.651Z" fill="#E45555"/>
<path opacity="0.2" d="M285.11 109.651H277.595V118.825H285.11V109.651Z" fill="#E45555"/>
<path d="M295.378 109.651H287.863V118.825H295.378V109.651Z" fill="#E45555"/>
<path d="M216.376 143.402C222.049 143.402 226.648 137.787 226.648 130.862C226.648 123.936 222.049 118.322 216.376 118.322C210.703 118.322 206.104 123.936 206.104 130.862C206.104 137.787 210.703 143.402 216.376 143.402Z" fill="#767D9F"/>
<path d="M215.843 114.909C216.868 120.371 217.738 125.873 218.453 131.416C218.668 133.063 218.859 134.8 218.37 136.357C217.961 137.655 217.127 138.669 216.473 139.806C215.819 140.942 215.324 142.398 215.722 143.7C216.12 145.002 217.28 145.714 218.388 146.081C221.558 147.124 224.936 146.365 228.091 145.236C229.52 144.787 230.889 144.094 232.16 143.179C233.497 142.143 234.593 140.705 235.6 139.223C240.199 132.415 243.209 124.245 246.043 116.125C244.222 116.327 242.388 115.997 240.692 115.163C238.996 114.329 237.487 113.014 236.29 111.327C235.129 109.662 234.278 107.343 234.932 105.307C233.014 106.591 230.737 106.677 228.672 107.555C227.391 108.152 226.158 108.892 224.989 109.767C223.579 110.761 222.177 111.776 220.783 112.809C219.189 113.981 217.696 115.024 215.843 114.909Z" fill="#AE6E79"/>
<path d="M237.325 124.324C235.525 128.6 233.183 132.71 229.84 135.256C226.496 137.802 221.995 138.493 218.646 135.976C216.996 134.746 215.747 132.876 214.307 131.301C212.866 129.725 211.066 128.377 209.131 128.582C206.998 128.808 205.328 130.84 203.899 132.786C201.731 135.742 199.637 138.824 198.102 142.323C195.156 149.048 194.458 156.909 194.588 164.533C194.717 172.157 195.621 179.741 195.642 187.365C195.672 196.744 194.37 206.047 193.053 215.286C205.16 213.466 217.282 217.444 229.416 218.951C237.181 219.925 245.005 219.904 252.811 219.878C254.184 219.878 255.645 219.835 256.788 218.907C257.487 218.285 258.052 217.466 258.435 216.52C259.513 214.092 259.946 211.323 260.247 208.586C261.01 201.674 261.033 194.676 261.054 187.7C261.107 170.798 261.157 153.834 259.398 137.065C258.965 132.94 258.411 128.794 257.115 124.935C255.819 121.077 253.704 117.527 250.746 115.459C248.846 114.129 244.442 111.813 242.204 113.154C239.691 114.65 238.53 121.461 237.325 124.324Z" fill="#1C1C1C"/>
<path d="M238.222 172.052C237.765 161.623 235.907 150.493 239.863 141.237C240.835 138.964 237.347 136.127 238.425 133.926C239.741 131.242 240.739 128.345 241.389 125.32C241.613 124.281 241.792 123.18 241.58 122.137C241.188 120.235 239.648 119.102 238.34 117.944C236.896 116.664 236.154 112.762 235.689 110.651C235.223 108.54 239.391 111.083 241.068 110.331C243.395 109.292 246.352 109.946 248.674 111C249.97 111.583 251.378 111.633 252.76 111.676C255.443 111.762 258.136 111.845 260.799 111.442C261.995 111.259 263.194 110.982 264.396 111.065C267.462 111.277 270.128 113.837 271.943 116.865C273.757 119.893 274.912 123.421 276.4 126.701C277.64 129.434 279.119 132.016 280.176 134.861C281.113 137.378 281.705 140.082 282.291 142.772L283.803 149.673C284.067 150.661 284.192 151.695 284.174 152.734C284.097 153.838 283.696 154.866 283.29 155.848C281.753 159.487 279.91 162.92 277.79 166.094C274.612 170.851 270.753 175.142 268.864 180.838C268.128 183.057 267.718 185.416 267.344 187.768C265.836 197.174 264.764 206.677 264.133 216.231C260.691 214.287 257.083 212.814 253.375 211.841C251.527 211.358 249.658 210.998 247.778 210.762C246.132 210.553 244.008 210.949 242.44 210.402C239.819 209.492 239.53 204.08 239.132 201.246C238.496 196.733 238.369 192.141 238.346 187.581C238.316 182.395 238.449 177.22 238.222 172.052Z" fill="#DF4848"/>
<path d="M180.646 152.551C181.886 161.181 183.253 169.837 185.948 177.947C185.881 178.026 185.813 178.098 185.745 178.17C185.506 178.418 185.259 178.652 185 178.889C184.396 179.407 183.733 179.846 183.232 180.522C183.043 180.78 182.893 181.079 182.79 181.403C182.698 181.656 182.65 181.93 182.65 182.207C182.65 182.483 182.698 182.757 182.79 183.01C181.385 183.769 179.753 183.535 178.177 183.463C176.819 183.402 175.502 183.463 174.413 184.373C172.898 185.646 172.442 188.092 172.197 190.314C172.107 191.124 172.029 191.936 171.965 192.749C171.902 193.504 171.851 194.262 171.811 195.022C171.678 197.536 171.659 200.057 171.755 202.574C171.771 203.034 171.792 203.494 171.817 203.954C167.004 203.814 162.617 200.75 158.467 197.773C157.518 197.093 156.54 196.377 155.925 195.255C155.357 194.153 155.117 192.847 155.244 191.555C155.244 191.371 155.271 191.195 155.291 191.008C155.423 189.941 155.649 188.894 155.966 187.887C157.264 183.594 159.179 179.618 161.619 176.145C162.673 174.642 163.861 173.171 164.353 171.283C164.568 170.46 164.647 169.586 164.865 168.766C165.843 165.213 169.372 163.533 170.58 160.085C170.875 159.261 171.01 158.358 171.375 157.567C171.704 156.91 172.128 156.331 172.627 155.859C172.842 155.64 173.066 155.427 173.287 155.215C175.357 153.235 177.351 151.143 179.27 148.94C179.628 148.53 179.981 148.115 180.331 147.696C180.284 149.323 180.39 150.952 180.646 152.551V152.551Z" fill="#DF4848"/>
<path d="M210.33 127.025C209.906 127.571 209.447 128.086 208.996 128.596L208.875 128.729L208.398 129.269C207.532 130.181 206.782 131.247 206.174 132.43L206.124 132.53C204.621 135.814 205.178 139.856 205.596 143.585C206.115 148.232 206.349 152.92 206.295 157.61C206.218 164.083 205.594 170.513 205.582 176.979C205.582 178.446 205.608 179.91 205.661 181.377C205.747 183.762 205.894 186.142 206.071 188.523C206.262 191.134 206.492 193.741 206.707 196.348C206.878 198.366 207.04 200.38 207.175 202.393C207.243 203.436 207.308 204.476 207.361 205.519C207.423 206.741 207.473 207.968 207.502 209.19C207.523 209.967 207.535 210.74 207.535 211.517C207.535 211.959 207.535 212.398 207.535 212.837C207.535 213.678 207.516 214.517 207.479 215.354C207.44 216.431 207.38 217.509 207.299 218.591C207.208 219.767 207.046 221.05 206.368 221.878C206.327 221.928 206.283 221.975 206.239 222.021L205.284 221.878C198.705 220.916 192.062 220.771 185.459 221.446C185.603 220.231 185.736 219.019 185.866 217.799C185.925 217.224 185.983 216.645 186.039 216.066C186.104 215.404 186.166 214.743 186.225 214.081C186.293 213.362 186.355 212.643 186.414 211.923C186.567 210.07 186.701 208.216 186.817 206.36C186.988 203.653 187.118 200.942 187.206 198.225C187.249 196.928 187.283 195.63 187.306 194.331C187.339 192.72 187.355 191.107 187.353 189.494C187.353 187.926 187.342 186.356 187.321 184.783C187.321 184.265 187.303 183.747 187.268 183.233C187.242 182.77 187.19 182.31 187.112 181.856C186.893 180.809 186.597 179.788 186.228 178.806C186.163 178.619 186.101 178.447 186.039 178.249C186.004 178.152 185.972 178.051 185.939 177.954C187.636 176.109 188.844 173.638 190.004 171.207C191.887 167.291 193.813 163.202 194.129 158.678C194.444 154.154 192.603 149.073 189.062 147.692C188.099 147.332 187.079 147.232 186.087 147.019C185.15 146.818 183.197 146.361 182.113 145.541C181.524 146.28 180.934 147.005 180.345 147.717C180.381 146.631 180.598 145.565 180.984 144.585L181.403 144.61C181.369 144.495 181.353 144.373 181.356 144.25C181.356 143.866 181.574 143.431 182.039 142.949C183.427 141.51 185.609 141.19 186.484 139.245C186.85 138.435 186.911 137.472 187.206 136.623C188.051 134.203 190.479 133.311 191.94 131.376C193.401 129.441 193.766 126.701 194.947 124.543C195.83 122.968 197.054 121.723 198.482 120.947C198.6 120.879 198.721 120.811 198.842 120.749C201.287 119.473 204.191 119.181 206.725 119.189C207.709 119.189 210.26 119.225 211.509 119.832C211.711 119.921 211.897 120.059 212.054 120.239C213.385 122.008 211.314 125.745 210.33 127.025Z" fill="#DF4848"/>
<path d="M181.085 144.333C183.36 143.497 185.749 143.221 188.113 143.522C190.477 143.822 192.768 144.694 194.853 146.085C196.974 147.523 198.877 149.53 200.044 152.119C201.797 156.003 201.72 160.685 201.596 165.119C201.535 167.338 201.455 169.636 200.654 171.628C199.726 173.933 197.976 175.516 196.191 176.81C195.073 177.681 193.847 178.328 192.562 178.727C190.582 179.252 188.526 178.806 186.532 178.367C184.363 177.878 182.036 177.289 180.531 175.318C179.647 174.174 179.164 172.689 178.687 171.236C178.001 169.138 177.314 167.043 176.625 164.95C175.432 161.314 175.028 158.29 176.604 154.748C177.32 153.133 178.195 151.623 178.902 149.997C179.255 149.17 180.522 144.545 181.085 144.333Z" fill="#DF4848"/>
<path d="M304.891 206.5V217.253C298.848 220.318 292.366 221.882 285.823 221.856H206.377C206.336 221.907 206.292 221.953 206.248 222L205.293 221.856H63.9741C52.1172 221.856 41.1294 217.951 32.1182 211.298V194.881L100.084 185.304H100.137L139.717 189.397L149.959 190.476L155.279 191.026L166.291 192.166L171.955 192.752L180.204 193.608L181.364 193.727L187.309 194.342L195.375 195.151L206.716 196.323L225.622 198.283L238.922 199.66L260.763 201.922L264.916 202.35L265.364 202.397L265.753 202.437L271.238 203.005L277.259 203.631L277.957 203.703L304.891 206.5Z" fill="#2D2D2D"/>
<path d="M225.06 206.105L139.885 188.358L136.583 208.744L175.626 214.452L187.648 216.289L220.718 208.338L225.06 206.105Z" fill="#9C9CA1"/>
<path d="M180.969 215.268L223.642 205.476C223.856 205.426 224.075 205.434 224.286 205.5C224.497 205.566 224.692 205.688 224.86 205.858C225.027 206.027 225.161 206.24 225.253 206.48C225.345 206.721 225.393 206.983 225.392 207.248V207.248C225.393 207.669 225.273 208.077 225.053 208.401C224.832 208.725 224.526 208.945 224.187 209.021L182.513 218.548L180.969 215.268Z" fill="#9C9CA1"/>
<path d="M199.481 184.474C200.809 184.323 202.156 184.067 203.352 183.348C204.824 182.453 205.97 180.91 207.334 179.773C210.333 177.256 214.345 176.918 217.783 178.364C221.221 179.809 224.09 182.906 226.099 186.603C227.434 189.066 228.435 192.209 227.492 194.928C227.169 195.759 226.761 196.537 226.279 197.244L223.822 201.164C223.355 201.988 222.794 202.725 222.155 203.354C221.236 204.17 220.093 204.505 218.967 204.706C215.977 205.238 212.934 204.936 209.921 205.181C204.745 205.601 199.69 207.637 194.502 207.568C191.521 207.529 188.578 206.795 185.665 206.062L172.771 202.825C170.526 202.264 167.99 201.444 166.933 198.959C166.458 197.841 166.37 196.546 166.314 195.287C166.161 191.821 166.314 187.966 168.282 185.466C170.132 183.121 173.057 182.381 175.266 180.647C177.97 178.522 178.863 179.209 181.715 180.805C187.278 183.881 193.399 185.145 199.481 184.474V184.474Z" fill="#AE6E79"/>
<path opacity="0.05" d="M199.481 184.474C200.809 184.323 202.156 184.067 203.352 183.348C204.824 182.453 205.97 180.91 207.334 179.773C210.333 177.256 214.345 176.918 217.783 178.364C221.221 179.809 224.09 182.906 226.099 186.603C227.434 189.066 228.435 192.209 227.492 194.928C227.169 195.759 226.761 196.537 226.279 197.244L223.822 201.164C223.355 201.988 222.794 202.725 222.155 203.354C221.236 204.17 220.093 204.505 218.967 204.706C215.977 205.238 212.934 204.936 209.921 205.181C204.745 205.601 199.69 207.637 194.502 207.568C191.521 207.529 188.578 206.795 185.665 206.062L172.771 202.825C170.526 202.264 167.99 201.444 166.933 198.959C166.458 197.841 166.37 196.546 166.314 195.287C166.161 191.821 166.314 187.966 168.282 185.466C170.132 183.121 173.057 182.381 175.266 180.647C177.97 178.522 178.863 179.209 181.715 180.805C187.278 183.881 193.399 185.145 199.481 184.474V184.474Z" fill="black"/>
<path d="M251.26 179.543C247.642 181.251 244.004 182.967 240.216 183.984C233.865 185.693 227.219 185.423 220.918 187.376C217.589 188.411 214.281 190.08 210.861 189.742C209.332 189.591 207.856 189.023 206.369 188.591C198.011 186.074 188.511 186.89 181.724 193.363C179.403 195.575 177.503 198.333 175.779 201.275C175.411 201.91 175.161 202.637 175.05 203.404C174.938 204.17 174.966 204.958 175.132 205.71C175.299 206.461 175.599 207.159 176.012 207.753C176.425 208.346 176.94 208.821 177.52 209.143C180.16 210.625 182.987 211.546 185.881 211.866C189.748 212.283 193.634 211.614 197.481 210.945C203.19 209.956 208.902 208.964 214.596 207.852C216.641 207.453 218.685 207.04 220.741 206.723C235.538 204.44 250.603 207.216 265.438 205.31C266.937 205.116 268.463 204.864 269.827 204.084C273.28 202.106 274.988 196.891 274.275 192.31C273.562 187.728 270.811 183.92 267.5 181.582C264.725 179.615 261.732 178.82 258.642 177.986C255.773 177.17 254.023 178.249 251.26 179.543Z" fill="#AE6E79"/>
<path opacity="0.1" d="M282.994 152.155C284.626 154.766 284.974 158.268 284.797 161.537C284.62 164.806 283.984 168.039 283.89 171.322C283.76 175.825 284.65 180.313 284.5 184.801C284.394 187.94 283.784 191.019 283.062 194.032C282.211 197.589 280.979 201.412 278.29 203.12C274.72 205.389 267.231 204.113 263.475 205.889C263.817 203.289 267.093 199.524 267.435 196.924C267.67 195.126 267.909 193.277 267.655 191.476C267.331 189.178 266.227 187.139 264.916 185.441C262.83 182.74 260.108 180.709 257.118 180.047C254.128 179.385 246.808 179.928 244.416 182.233C244.121 179.853 249.601 177.558 251.527 177.044C252.487 176.782 253.589 176.929 254.358 176.185C255.831 174.775 254.762 171.966 254.832 169.711C254.888 167.913 255.749 166.266 255.922 164.468C256.217 161.591 254.679 158.66 255.283 155.837C255.507 154.794 256.005 153.877 256.349 152.885C257.398 149.846 256.939 146.379 256.379 143.15C256.031 141.122 255.693 138.835 256.618 137.105C257.475 135.49 259.908 141.24 261.466 140.974C266.613 140.093 271.27 135.436 275.427 139.248C277.545 141.19 277.821 143.204 278.667 145.977C279.489 148.616 281.619 149.968 282.994 152.155Z" fill="black"/>
<path d="M283.878 152.155C285.51 154.766 285.858 158.268 285.681 161.537C285.504 164.806 284.868 168.039 284.773 171.322C284.644 175.825 285.533 180.313 285.383 184.801C285.277 187.94 284.667 191.019 283.946 194.032C283.094 197.589 281.863 201.412 279.173 203.12C275.603 205.389 268.115 204.112 264.359 205.889C264.701 203.289 267.976 199.524 268.318 196.924C268.554 195.126 268.792 193.277 268.539 191.475C268.215 189.177 267.11 187.138 265.799 185.441C263.714 182.74 260.992 180.708 258.002 180.047C255.012 179.385 247.692 179.928 245.3 182.233C245.005 179.853 250.484 177.558 252.411 177.044C253.371 176.781 254.473 176.929 255.242 176.184C256.715 174.775 255.645 171.966 255.716 169.711C255.772 167.913 256.632 166.266 256.806 164.468C257.1 161.591 255.563 158.66 256.167 155.837C256.391 154.794 256.888 153.877 257.233 152.885C258.282 149.846 257.822 146.379 257.262 143.15C256.915 141.122 256.576 138.834 257.501 137.105C258.358 135.49 260.034 134.879 261.593 134.609C266.81 133.747 272.097 135.412 276.322 139.248C278.44 141.19 278.717 143.204 279.562 145.976C280.372 148.616 282.502 149.968 283.878 152.155Z" fill="#DF4848"/>
<path d="M88.9637 135.116L104.98 207.378C105.177 208.263 105.589 209.055 106.164 209.646C106.738 210.238 107.446 210.602 108.194 210.69L180.284 219.145C180.871 219.214 181.464 219.11 182.012 218.842C182.56 218.574 183.047 218.15 183.433 217.605C183.819 217.06 184.092 216.409 184.23 215.709C184.368 215.008 184.366 214.277 184.225 213.578L166.686 126.413C166.477 125.377 165.974 124.465 165.267 123.839C164.559 123.213 163.692 122.913 162.821 122.993L92.2424 129.438C91.7005 129.489 91.1745 129.686 90.7021 130.014C90.2296 130.342 89.8223 130.793 89.5092 131.336C89.196 131.878 88.9848 132.498 88.8905 133.152C88.7962 133.805 88.8212 134.476 88.9637 135.116V135.116Z" fill="#D7D7D7"/>
<path d="M231.868 149.217C236.244 149.217 239.792 144.829 239.792 139.417C239.792 134.005 236.244 129.617 231.868 129.617C227.491 129.617 223.943 134.005 223.943 139.417C223.943 144.829 227.491 149.217 231.868 149.217Z" fill="white"/>
<path d="M238.374 121.54C238.374 121.54 240.045 127.604 235.116 130.153L234.486 131.498L237.573 135.217C237.573 135.217 241.379 126.741 240.967 123.731C240.967 123.731 240.377 120.674 238.374 121.54Z" fill="white"/>
<path d="M232.778 149.217C236.999 149.217 240.42 145.04 240.42 139.888C240.42 134.736 236.999 130.56 232.778 130.56C228.558 130.56 225.137 134.736 225.137 139.888C225.137 145.04 228.558 149.217 232.778 149.217Z" fill="#802C2C"/>
<path d="M241.006 125.108L239.792 122.662L238.024 122.357C238.402 114.305 236.69 111.906 236.69 111.906L236.292 111.86L234.56 111.655L231.302 107.526V106.354C235.88 107.019 238.41 109.673 239.777 112.784C242.193 118.243 241.006 125.108 241.006 125.108Z" fill="#E45555"/>
<path opacity="0.1" d="M236.306 110.378V111.86L234.574 111.655L231.316 107.526C231.316 107.526 236.356 108.903 236.306 110.378Z" fill="black" stroke="#DF4848" stroke-miterlimit="10"/>
<path opacity="0.1" d="M241.006 125.108L239.792 122.662V112.798C242.193 118.243 241.006 125.108 241.006 125.108Z" fill="black" stroke="#DF4848" stroke-miterlimit="10"/>
<path d="M218.657 143.723C220.69 142.29 220.603 137.458 218.462 132.931C216.321 128.404 212.937 125.896 210.904 127.329C208.871 128.762 208.958 133.593 211.099 138.12C213.24 142.647 216.624 145.156 218.657 143.723Z" fill="white"/>
<path d="M215.927 134.735C218.069 139.262 220.696 142.287 218.664 143.725C216.631 145.164 210.71 144.445 208.568 139.913C206.427 135.382 208.371 129.125 210.404 127.686C212.436 126.248 213.782 130.196 215.927 134.735Z" fill="#802C2C"/>
<path opacity="0.1" d="M234.995 102.117C234.995 116.585 226.885 130.527 215.034 130.527C209.343 130.527 203.884 127.767 199.86 122.854C195.835 117.941 193.574 111.277 193.574 104.329C193.574 97.3808 195.835 90.7172 199.86 85.8041C203.884 80.891 209.343 78.1308 215.034 78.1308C226.885 78.1452 234.995 87.6463 234.995 102.117Z" fill="black"/>
<path d="M215.034 129.822C226.887 129.822 236.495 118.093 236.495 103.624C236.495 89.1554 226.887 77.4261 215.034 77.4261C203.182 77.4261 193.574 89.1554 193.574 103.624C193.574 118.093 203.182 129.822 215.034 129.822Z" fill="#AE6E79"/>
<path d="M213.15 92.0158C215.704 93.163 217.215 96.3852 219.507 98.1797C222.747 100.697 226.966 100.046 230.666 98.8018C232.728 98.1149 234.884 97.277 236.914 98.0394C237.212 98.2008 237.542 98.2581 237.865 98.2048C238.307 98.0502 238.525 97.4532 238.67 96.921C241.179 87.7866 240.051 77.4404 236.263 68.9893C235.285 66.81 234.112 64.7026 232.498 63.1886C231.226 61.9983 229.729 61.2179 228.221 60.5526C225.464 59.3441 222.614 58.4849 219.713 57.9885C219.201 57.8749 218.678 57.8543 218.161 57.9274C217.451 58.0676 216.815 58.5351 216.181 58.9523C213.469 60.7274 210.461 61.7248 207.385 61.8688C203.261 62.0594 198.548 60.8727 195.369 64.1021C191.54 67.9752 192.494 75.5308 190.011 80.7884C188.367 84.266 185.197 86.7905 184.676 90.7499C184.54 91.9601 184.603 93.1912 184.861 94.3713C186.075 100.463 190.906 105.181 196.056 105.293C196.846 105.367 197.638 105.169 198.341 104.721C198.802 104.337 199.209 103.865 199.546 103.322C202.919 98.4458 206.778 89.1532 213.15 92.0158Z" fill="#1C1C1C"/>
<path opacity="0.1" d="M238.669 94.2706C238.525 94.8028 238.307 95.3998 237.865 95.5544C237.541 95.6076 237.212 95.5504 236.913 95.389C234.884 94.6266 232.715 95.4645 230.668 96.1514C226.965 97.3957 222.738 98.061 219.509 95.5293C217.215 93.7312 215.706 90.4946 213.149 89.3654C206.778 86.4884 202.919 95.7954 199.537 100.672C199.2 101.214 198.793 101.687 198.332 102.071C197.629 102.518 196.837 102.716 196.046 102.643C190.914 102.531 186.08 97.8128 184.852 91.7209C184.784 91.3613 184.725 91.0016 184.681 90.642C184.681 90.6744 184.681 90.7032 184.666 90.7355C184.531 91.9457 184.594 93.1768 184.852 94.3569C186.066 100.449 190.9 105.167 196.046 105.279C196.837 105.352 197.629 105.154 198.332 104.707C198.793 104.323 199.2 103.85 199.537 103.308C202.919 98.4314 206.778 89.1388 213.149 92.0014C215.706 93.1486 217.215 96.3708 219.509 98.1653C222.75 100.683 226.965 100.032 230.668 98.7874C232.73 98.1005 234.884 97.2626 236.913 98.025C237.212 98.1864 237.541 98.2436 237.865 98.1904C238.307 98.0358 238.525 97.4388 238.669 96.9066C239.681 93.1691 240.128 89.2381 239.989 85.3053C239.902 88.3553 239.458 91.3745 238.669 94.2706V94.2706Z" fill="black"/>
</g>
<defs>
<clipPath id="clip0">
<rect width="337" height="222" fill="white"/>
</clipPath>
</defs>
</svg>
